<mxfile host="app.diagrams.net" modified="2024-05-19T09:04:08.733Z" agent="Mozilla/5.0 (Windows NT 10.0; Win64; x64) AppleWebKit/537.36 (KHTML, like Gecko) Chrome/123.0.0.0 Safari/537.36 OPR/109.0.0.0 (Edition Yx GX 03)" etag="2DCepDWQiw29kGc0N-By" version="24.4.4" type="device">
  <diagram name="Страница — 1" id="tzhVLoU9hkzu-7EjvtOP">
    <mxGraphModel dx="2220" dy="766" grid="1" gridSize="10" guides="1" tooltips="1" connect="1" arrows="1" fold="1" page="1" pageScale="1" pageWidth="827" pageHeight="1169" math="0" shadow="0">
      <root>
        <mxCell id="0" />
        <mxCell id="1" parent="0" />
        <mxCell id="CEtH4roDND39gwpwAmbD-2" value="Увеличение объёма продаж" style="swimlane;fontSize=15;startSize=50;" parent="1" vertex="1">
          <mxGeometry x="250" y="310" width="340" height="100" as="geometry" />
        </mxCell>
        <mxCell id="CEtH4roDND39gwpwAmbD-4" value="" style="ellipse;whiteSpace=wrap;html=1;aspect=fixed;" parent="CEtH4roDND39gwpwAmbD-2" vertex="1">
          <mxGeometry x="290" y="5" width="40" height="40" as="geometry" />
        </mxCell>
        <mxCell id="CEtH4roDND39gwpwAmbD-5" value="" style="ellipse;whiteSpace=wrap;html=1;aspect=fixed;fillColor=#f8cecc;strokeColor=#b85450;" parent="1" vertex="1">
          <mxGeometry x="550" y="326" width="20" height="20" as="geometry" />
        </mxCell>
        <mxCell id="CEtH4roDND39gwpwAmbD-6" value="Максимизация прибыли" style="swimlane;fontSize=15;startSize=50;" parent="1" vertex="1">
          <mxGeometry x="-180" y="630" width="340" height="100" as="geometry" />
        </mxCell>
        <mxCell id="CEtH4roDND39gwpwAmbD-7" value="" style="ellipse;whiteSpace=wrap;html=1;aspect=fixed;" parent="CEtH4roDND39gwpwAmbD-6" vertex="1">
          <mxGeometry x="290" y="5" width="40" height="40" as="geometry" />
        </mxCell>
        <mxCell id="CEtH4roDND39gwpwAmbD-8" value="" style="ellipse;whiteSpace=wrap;html=1;aspect=fixed;fillColor=#f8cecc;strokeColor=#b85450;" parent="1" vertex="1">
          <mxGeometry x="120" y="646" width="20" height="20" as="geometry" />
        </mxCell>
        <mxCell id="CEtH4roDND39gwpwAmbD-9" value="Обеспечение высокого &#xa;качества обслуживания" style="swimlane;fontSize=15;startSize=50;" parent="1" vertex="1">
          <mxGeometry x="40" y="770" width="460" height="100" as="geometry" />
        </mxCell>
        <mxCell id="CEtH4roDND39gwpwAmbD-10" value="" style="ellipse;whiteSpace=wrap;html=1;aspect=fixed;" parent="CEtH4roDND39gwpwAmbD-9" vertex="1">
          <mxGeometry x="410" y="6" width="40" height="40" as="geometry" />
        </mxCell>
        <mxCell id="CEtH4roDND39gwpwAmbD-11" value="" style="ellipse;whiteSpace=wrap;html=1;aspect=fixed;fillColor=#f8cecc;strokeColor=#b85450;" parent="CEtH4roDND39gwpwAmbD-9" vertex="1">
          <mxGeometry x="420" y="16" width="20" height="20" as="geometry" />
        </mxCell>
        <mxCell id="CEtH4roDND39gwpwAmbD-12" value="Развитие и внедрение инноваций" style="swimlane;fontSize=15;startSize=50;" parent="1" vertex="1">
          <mxGeometry x="540" y="770" width="360" height="100" as="geometry" />
        </mxCell>
        <mxCell id="CEtH4roDND39gwpwAmbD-13" value="" style="ellipse;whiteSpace=wrap;html=1;aspect=fixed;" parent="CEtH4roDND39gwpwAmbD-12" vertex="1">
          <mxGeometry x="310" y="5" width="40" height="40" as="geometry" />
        </mxCell>
        <mxCell id="CEtH4roDND39gwpwAmbD-14" value="" style="ellipse;whiteSpace=wrap;html=1;aspect=fixed;fillColor=#f8cecc;strokeColor=#b85450;" parent="CEtH4roDND39gwpwAmbD-12" vertex="1">
          <mxGeometry x="320" y="16" width="20" height="20" as="geometry" />
        </mxCell>
        <mxCell id="CEtH4roDND39gwpwAmbD-15" value="Формирование и поддержка &#xa;репутации компании" style="swimlane;fontSize=15;startSize=50;" parent="1" vertex="1">
          <mxGeometry x="800" y="630" width="400" height="100" as="geometry" />
        </mxCell>
        <mxCell id="CEtH4roDND39gwpwAmbD-16" value="" style="ellipse;whiteSpace=wrap;html=1;aspect=fixed;" parent="CEtH4roDND39gwpwAmbD-15" vertex="1">
          <mxGeometry x="360" y="6" width="40" height="40" as="geometry" />
        </mxCell>
        <mxCell id="CEtH4roDND39gwpwAmbD-17" value="" style="ellipse;whiteSpace=wrap;html=1;aspect=fixed;fillColor=#f8cecc;strokeColor=#b85450;" parent="CEtH4roDND39gwpwAmbD-15" vertex="1">
          <mxGeometry x="370" y="16" width="20" height="20" as="geometry" />
        </mxCell>
        <mxCell id="CEtH4roDND39gwpwAmbD-21" style="rounded=0;orthogonalLoop=1;jettySize=auto;html=1;entryX=0;entryY=1;entryDx=0;entryDy=0;dashed=1;endArrow=open;endFill=0;" parent="1" source="CEtH4roDND39gwpwAmbD-7" target="CEtH4roDND39gwpwAmbD-2" edge="1">
          <mxGeometry relative="1" as="geometry" />
        </mxCell>
        <mxCell id="CEtH4roDND39gwpwAmbD-22" style="rounded=0;orthogonalLoop=1;jettySize=auto;html=1;entryX=0.25;entryY=1;entryDx=0;entryDy=0;dashed=1;exitX=0.696;exitY=0.003;exitDx=0;exitDy=0;exitPerimeter=0;endArrow=open;endFill=0;" parent="1" source="CEtH4roDND39gwpwAmbD-9" target="CEtH4roDND39gwpwAmbD-2" edge="1">
          <mxGeometry relative="1" as="geometry">
            <mxPoint x="149" y="647" as="sourcePoint" />
            <mxPoint x="260" y="420" as="targetPoint" />
          </mxGeometry>
        </mxCell>
        <mxCell id="CEtH4roDND39gwpwAmbD-23" style="rounded=0;orthogonalLoop=1;jettySize=auto;html=1;entryX=0.75;entryY=1;entryDx=0;entryDy=0;dashed=1;exitX=0.25;exitY=0;exitDx=0;exitDy=0;endArrow=open;endFill=0;" parent="1" source="CEtH4roDND39gwpwAmbD-12" target="CEtH4roDND39gwpwAmbD-2" edge="1">
          <mxGeometry relative="1" as="geometry">
            <mxPoint x="310" y="780" as="sourcePoint" />
            <mxPoint x="345" y="420" as="targetPoint" />
          </mxGeometry>
        </mxCell>
        <mxCell id="CEtH4roDND39gwpwAmbD-24" style="rounded=0;orthogonalLoop=1;jettySize=auto;html=1;entryX=1;entryY=1;entryDx=0;entryDy=0;dashed=1;exitX=0.275;exitY=0.031;exitDx=0;exitDy=0;exitPerimeter=0;endArrow=open;endFill=0;" parent="1" source="CEtH4roDND39gwpwAmbD-15" target="CEtH4roDND39gwpwAmbD-2" edge="1">
          <mxGeometry relative="1" as="geometry">
            <mxPoint x="550" y="780" as="sourcePoint" />
            <mxPoint x="515" y="420" as="targetPoint" />
          </mxGeometry>
        </mxCell>
      </root>
    </mxGraphModel>
  </diagram>
</mxfile>
